# xmcd
#
# Track frame offsets:
# 150
# 28506
# 48482
# 71838
# 94182
# 113138
# 140217
# 161130
# 190646
# 210640
# 229209
# 249434
# 270688
#
# Disc length: 3895 seconds
#
#
# Revision: 0
# Processed by: cddbd v1.5.2PL0 Copyright (c) Steve Scherf et al.
# Submitted via: FreeRIP 2.96 
#
DISCID=bf0f350d
DTITLE=Andreas Franz - Das Verlies CD12v13
DYEAR=2006
DGENRE=Speech
TTITLE0=152 Das Verlies
TTITLE1=153 Das Verlies
TTITLE2=154 Das Verlies
TTITLE3=155 Das Verlies
TTITLE4=156 Das Verlies
TTITLE5=157 Das Verlies
TTITLE6=158 Das Verlies
TTITLE7=159 Das Verlies
TTITLE8=160 Das Verlies
TTITLE9=161 Das Verlies
TTITLE10=162 Das Verlies
TTITLE11=163 Das Verlies
TTITLE12=164 Das Verlies
EXTD=gelesen von Uta Kroemer
EXTT0=
EXTT1=
EXTT2=
EXTT3=
EXTT4=
EXTT5=
EXTT6=
EXTT7=
EXTT8=
EXTT9=
EXTT10=
EXTT11=
EXTT12=
PLAYORDER=
